<svg xmlns="http://www.w3.org/2000/svg" viewBox="0 0 196.35 196.35"><defs><style>.cls-1{fill:#d8c4a4;}</style></defs><title>dededede</title><g id="Layer_2" data-name="Layer 2"><g id="Layer_1-2" data-name="Layer 1"><g id="store"><path class="cls-1" d="M191.75,196.35H4.6a3.07,3.07,0,0,1,0-6.13H191.75a3.07,3.07,0,1,1,0,6.13Z"/><path class="cls-1" d="M58.29,151.69a4.62,4.62,0,0,1-4.6-4.6V123.44a4.6,4.6,0,1,1,9.2,0v23.65A4.61,4.61,0,0,1,58.29,151.69Z"/><path class="cls-1" d="M128.85,178.35a3.08,3.08,0,0,1-2.17-5.24l30.69-30.5A3.07,3.07,0,0,1,161.7,147L131,177.43A3.11,3.11,0,0,1,128.85,178.35Z"/><path class="cls-1" d="M144.19,178.33a3.16,3.16,0,0,1-2.18-.9,3.07,3.07,0,0,1,0-4.34l15.35-15.26a3.06,3.06,0,0,1,4.33,0,3.09,3.09,0,0,1,0,4.34l-15.33,15.23A3.11,3.11,0,0,1,144.19,178.33Z"/><path class="cls-1" d="M15.36,192a3.06,3.06,0,0,0,6.12,0V111.88a33.4,33.4,0,0,1-6.12-1.38Z"/><path class="cls-1" d="M71,111.93V192a3.06,3.06,0,0,0,6.12,0V112c-1,.09-2,.28-2.93.28A30.54,30.54,0,0,1,71,111.93Z"/><path class="cls-1" d="M174.87,192a3.06,3.06,0,0,0,6.13,0V110.5a33.71,33.71,0,0,1-6.13,1.38Z"/><path class="cls-1" d="M180.46,0H15.89L0,71.08v5.67a26.26,26.26,0,0,0,50.26,10.7,26.22,26.22,0,0,0,47.93,0,26.21,26.21,0,0,0,47.92,0,26.26,26.26,0,0,0,50.25-10.7V71.1Zm-134,76.75a20.14,20.14,0,1,1-40.28,0v-2H46.42Zm.79-8.19H7L20.92,6.19h30.7Zm47.15,8.19a20.14,20.14,0,0,1-40.29,0V74.81H94.36Zm.17-8.2H53.72L58.15,6.21H94.53Zm47.75,8.2a20.14,20.14,0,0,1-40.29,0V74.88h40.29Zm-41.21-8.27V6.23h37.12l4.87,62.26ZM144.56,6.18h30.89l13.94,62.38H149.46Zm45.66,70.57a20.14,20.14,0,1,1-40.29,0V74.88h0V74.8h40.29Z"/></g></g></g></svg>