<?xml version="1.0" encoding="UTF-8"?>
<svg width="99px" height="142px" viewBox="0 0 99 142" version="1.1" xmlns="http://www.w3.org/2000/svg" xmlns:xlink="http://www.w3.org/1999/xlink">
    <!-- Generator: Sketch 42 (36781) - http://www.bohemiancoding.com/sketch -->
    <title>Fill 1</title>
    <desc>Created with Sketch.</desc>
    <defs></defs>
    <g id="Welcome" stroke="none" stroke-width="1" fill="none" fill-rule="evenodd" opacity="0.108242754">
        <g id="Desktop-HD-Copy-3" transform="translate(-221.000000, -891.000000)" fill="#000000">
            <g id="Group-5" transform="translate(153.000000, 891.000000)">
                <g id="Page-1" transform="translate(68.000000, 0.000000)">
                    <path d="M49.499,17.3938 C50.671,17.3938 51.62,16.4448 51.62,15.2728 L51.62,2.1228 C51.62,0.9508 50.671,-0.0002 49.499,-0.0002 C48.328,-0.0002 47.377,0.9508 47.377,2.1228 L47.377,15.2728 C47.377,16.4448 48.328,17.3938 49.499,17.3938 L49.499,17.3938 Z M34.143,16.7718 C34.971,17.6008 36.313,17.6008 37.143,16.7718 C37.971,15.9438 37.971,14.6008 37.143,13.7728 L27.844,4.4738 C27.015,3.6438 25.671,3.6438 24.843,4.4738 C24.015,5.3018 24.015,6.6458 24.843,7.4728 L34.143,16.7718 Z M64.856,16.7718 L74.155,7.4728 C74.983,6.6458 74.983,5.3018 74.155,4.4738 C73.326,3.6438 71.983,3.6438 71.155,4.4738 L61.857,13.7728 C61.028,14.6008 61.028,15.9438 61.857,16.7718 C62.686,17.6008 64.028,17.6008 64.856,16.7718 L64.856,16.7718 Z M78.811,52.3718 L69.227,62.9128 C80.12,69.5688 87.395,81.5588 87.395,95.2588 C87.395,116.1908 70.429,133.1548 49.5,133.1548 C28.569,133.1548 11.604,116.1908 11.604,95.2588 C11.604,81.5588 18.88,69.5688 29.773,62.9128 L20.189,52.3718 C7.947,61.3838 0,75.8928 0,92.2598 C0,119.5968 22.163,141.7588 49.5,141.7588 C76.838,141.7588 98.999,119.5968 98.999,92.2598 C98.999,75.8928 91.053,61.3838 78.811,52.3718 L78.811,52.3718 Z M44.179,64.7338 C36.952,57.5078 29.696,49.1448 22.371,41.9158 C26.828,41.6518 31.774,41.8788 36.422,41.8008 C39.469,49.8488 42.476,57.9308 45.641,65.8608 C45.231,65.9238 44.675,65.2318 44.179,64.7338 L44.179,64.7338 Z M22.933,37.6438 C25.149,34.9818 27.692,31.8808 29.902,29.0988 C32.438,32.0718 34.95,35.6668 36.983,38.7678 L22.258,38.7678 C22.061,38.2808 22.669,37.9568 22.933,37.6438 L22.933,37.6438 Z M46.652,26.9638 C46.703,27.3518 46.255,27.7608 45.978,28.0868 C43.809,30.6338 41.228,33.6038 39.12,36.2928 C36.757,33.2988 34.677,30.0218 32.263,27.0768 C36.835,26.8138 41.893,27.0398 46.652,26.9638 L46.652,26.9638 Z M56.544,38.7678 L41.144,38.7678 C41.06,38.3098 41.56,38.0588 41.819,37.7558 C44.052,35.1288 46.534,32.0148 48.788,29.3238 C51.516,32.3308 54.03,35.5488 56.544,38.7678 L56.544,38.7678 Z M66.213,26.9638 C63.667,30.1128 61.131,33.2728 58.343,36.1808 C55.936,33.0798 53.462,30.0458 50.925,27.0768 C55.796,26.8138 61.155,27.0398 66.213,26.9638 L66.213,26.9638 Z M76.778,38.7678 L60.367,38.7678 C62.991,35.3568 65.935,32.2668 68.575,28.8738 C71.437,31.9668 74.415,35.5488 76.778,38.7678 L76.778,38.7678 Z M75.206,43.2648 C67.842,50.7768 60.491,59.1218 53.172,66.7588 C56.212,58.6318 59.811,50.0888 63.065,41.8008 L76.331,41.8008 C76.474,42.2638 75.678,42.7838 75.206,43.2648 L75.206,43.2648 Z M39.683,41.8008 L59.806,41.8008 C56.41,50.3998 52.889,58.8678 49.576,67.5458 C46.103,59.1368 42.925,50.4398 39.683,41.8008 L39.683,41.8008 Z M83.614,39.6188 L71.192,23.8788 L27.808,23.8788 L15.385,39.6188 L49.5,77.1368 L83.614,39.6188 Z" id="Fill-1"></path>
                </g>
            </g>
        </g>
    </g>
</svg>