<?xml version="1.0" encoding="UTF-8"?>
<svg width="267px" height="268px" viewBox="0 0 267 268" version="1.1" xmlns="http://www.w3.org/2000/svg" xmlns:xlink="http://www.w3.org/1999/xlink">
    <!-- Generator: Sketch 42 (36781) - http://www.bohemiancoding.com/sketch -->
    <title>Page 1 Copy</title>
    <desc>Created with Sketch.</desc>
    <defs>
        <polygon id="path-1" points="266.204155 0.0184893062 266.204155 267.256568 0 267.256568 0 0.0184893062 266.195865 0.0184893062 0.000106294201 0.0183532012 0.000106294201 86.9210304 266.195865 86.9210304 266.195865 0.0184893062"></polygon>
    </defs>
    <g id="Welcome" stroke="none" stroke-width="1" fill="none" fill-rule="evenodd" opacity="0.0799999982">
        <g id="Desktop-HD" transform="translate(-828.000000, -981.000000)">
            <g id="Page-1-Copy" transform="translate(828.000000, 981.000000)">
                <path d="M12.4018354,87.3923172 L133.137602,256.304063 L253.789303,87.3923172 L12.4018354,87.3923172 Z M133.137602,267.728716 C131.758671,267.728716 130.512616,267.054997 129.700444,265.95799 L0.788715891,85.6773942 C-0.12108016,84.3707863 -0.240397675,82.6994169 0.487710342,81.2934523 C1.15344784,79.8752382 2.60830799,78.9891947 4.18384154,78.9891947 L261.978824,78.9891947 C263.588254,78.9891947 265.002438,79.8752382 265.723766,81.2934523 C266.458654,82.6994169 266.347472,84.3707863 265.409202,85.6773942 L136.524592,265.95799 C135.734113,267.054997 134.488059,267.728716 133.137602,267.728716 L133.137602,267.728716 Z" id="Fill-1" fill="#000000"></path>
                <path d="M133.137466,267.728853 C131.240589,267.728853 129.496926,266.422245 129.063044,264.524941 L86.0789093,84.1885417 C85.5053717,81.9128661 86.9127761,79.622219 89.1445559,79.1009369 C91.385827,78.5810158 93.6664186,79.9583984 94.2128386,82.235435 L137.190194,262.556863 C137.735258,264.806678 136.342768,267.055133 134.068956,267.632218 C133.759815,267.673049 133.430336,267.728853 133.137466,267.728853" id="Fill-3" fill="#000000"></path>
                <path d="M133.137466,267.728853 C132.794428,267.728853 132.431052,267.673049 132.150385,267.632218 C129.881996,267.055133 128.482727,264.806678 129.029147,262.556863 L172.006502,82.235435 C172.551566,79.9583984 174.74267,78.5810158 177.044956,79.1009369 C179.293006,79.622219 180.685496,81.9128661 180.167549,84.1885417 L137.190194,264.524941 C136.700721,266.422245 135.00587,267.728853 133.137466,267.728853" id="Fill-5" fill="#000000"></path>
                <g id="Group-9" transform="translate(0.000000, 0.472284)">
                    <mask id="mask-2" fill="white">
                        <use xlink:href="#path-1"></use>
                    </mask>
                    <g id="Clip-8"></g>
                    <path d="M261.97923,86.9200329 C260.544708,86.9200329 259.11561,86.1483175 258.33869,84.7287424 L218.973402,12.9619384 L179.747769,84.7287424 C178.291552,87.4263435 173.875449,87.4263435 172.447706,84.7287424 L133.138008,12.9619384 L93.8269549,84.7287424 C93.0988469,86.0925145 91.6439867,86.9200329 90.1457384,86.9200329 C88.5986783,86.9200329 87.2061887,86.0925145 86.4428278,84.7287424 L47.168383,12.9619384 L7.85868541,84.7287424 C6.76720133,86.7662342 4.21950121,87.5243391 2.18296817,86.4001118 C0.124741038,85.2758845 -0.604722859,82.7184716 0.543708221,80.6809798 L43.4939459,2.21236576 C44.2220539,0.848593684 45.6497965,0.0183532012 47.168383,0.0183532012 C48.693749,0.0183532012 50.1079327,0.848593684 50.8360407,2.21236576 L90.1457384,73.9778087 L129.426962,2.21236576 C130.925211,-0.472985839 135.320977,-0.472985839 136.777193,2.21236576 L176.059773,73.9778087 L215.290829,2.21236576 C216.747045,-0.472985839 221.186199,-0.472985839 222.661397,2.21236576 L265.697056,80.6809798 C266.787184,82.7184716 266.031958,85.2758845 264.002205,86.4001118 C263.358161,86.7662342 262.707338,86.9200329 261.97923,86.9200329" id="Fill-7" fill="#000000" mask="url(#mask-2)"></path>
                </g>
                <path d="M9.13199312,82.9091547 L133.138144,256.304199 L256.995148,82.9091547 L216.501766,8.92383927 L49.6253747,8.92383927 L9.13199312,82.9091547 Z M133.138144,267.728853 C131.757857,267.728853 130.511803,267.055133 129.700986,265.958127 L0.789258243,85.6775304 C-0.149011306,84.3437014 -0.239855323,82.6151679 0.543843809,81.1806212 L43.4940815,2.6847862 C44.2221895,1.32101413 45.6499321,0.490773646 47.1685186,0.490773646 L218.973537,0.490773646 C220.507038,0.490773646 221.913087,1.32101413 222.661533,2.6847862 L265.697191,81.1806212 C266.459196,82.6151679 266.348014,84.3437014 265.408389,85.6775304 L136.525134,265.958127 C135.734656,267.055133 134.488601,267.728853 133.138144,267.728853 L133.138144,267.728853 Z" id="Fill-10" fill="#000000"></path>
            </g>
        </g>
    </g>
</svg>