<svg xmlns="http://www.w3.org/2000/svg" viewBox="0 0 148.57 148.57"><defs><style>.cls-1{fill:#d8c4a4;}</style></defs><title>Asset 1</title><g id="Layer_2" data-name="Layer 2"><g id="Layer_1-2" data-name="Layer 1"><path class="cls-1" d="M74.29,148.57a74.29,74.29,0,1,1,74.29-74.28A74.37,74.37,0,0,1,74.29,148.57Zm0-139.06a64.78,64.78,0,1,0,64.78,64.78A64.85,64.85,0,0,0,74.29,9.51Z"/><path class="cls-1" d="M75.88,78.76a4.69,4.69,0,0,1-.83-.07C63.15,76.6,47.33,72.28,47.33,59c0-10.79,11.11-18,27.65-18,15.27,0,24.71,8.51,27,16.42A4.75,4.75,0,1,1,92.88,60c-1.39-4.76-8-9.58-17.89-9.58C64.47,50.44,56.84,54,56.84,59c0,1.7,0,6.86,19.85,10.35a4.75,4.75,0,0,1-.82,9.44Z"/><path class="cls-1" d="M76.76,107.62c-17,0-30.71-7.7-32.54-18.31a4.75,4.75,0,1,1,9.37-1.61c.86,5,10,10.41,23.17,10.41,11.36,0,18.14-4.37,18.14-8.59,0-2.2,0-7.34-19.86-10.83a4.75,4.75,0,0,1,1.65-9.36c12.91,2.27,27.72,6.62,27.72,20.2C104.42,100.17,93,107.62,76.76,107.62Z"/><path class="cls-1" d="M75.87,50.45a4.75,4.75,0,0,1-4.75-4.75V33.89a4.75,4.75,0,1,1,9.51,0V45.7A4.75,4.75,0,0,1,75.87,50.45Z"/><path class="cls-1" d="M75.87,119.44a4.75,4.75,0,0,1-4.75-4.75V102.88a4.75,4.75,0,1,1,9.51,0v11.81A4.75,4.75,0,0,1,75.87,119.44Z"/></g></g></svg>