<svg xmlns="http://www.w3.org/2000/svg" viewBox="0 0 93.48 91.27"><defs><style>.cls-1{fill:none;stroke:#d5c4a4;stroke-miterlimit:10;}.cls-2{fill:#c6b291;}.cls-3{fill:#fff;}</style></defs><title>shop</title><g id="Layer_2" data-name="Layer 2"><g id="Layer_1-2" data-name="Layer 1"><circle class="cls-1" cx="46.74" cy="7.02" r="6.52"/><line class="cls-1" x1="42.18" y1="11.68" x2="20.74" y2="60.28"/><line class="cls-1" x1="49.97" y1="12.68" x2="72.73" y2="60.28"/><rect class="cls-2" y="59.14" width="93.48" height="32.13"/><path class="cls-3" d="M7,76a4.53,4.53,0,0,1,.33-1.74,3.81,3.81,0,0,1,.92-1.37A4.2,4.2,0,0,1,9.65,72a4.44,4.44,0,0,1,1.73-.32,4.48,4.48,0,0,1,1.73.32,4.24,4.24,0,0,1,1.39.91,3.94,3.94,0,0,1,.92,1.37A4.53,4.53,0,0,1,15.74,76a4.48,4.48,0,0,1-.32,1.73,4.24,4.24,0,0,1-.91,1.39,4,4,0,0,1-1.39.92,4.32,4.32,0,0,1-1.74.33A4.32,4.32,0,0,1,9.64,80a3.93,3.93,0,0,1-1.38-.92,4.09,4.09,0,0,1-.91-1.39A4.48,4.48,0,0,1,7,76Zm1.5,0a3.25,3.25,0,0,0,.37,1.54,2.71,2.71,0,0,0,1,1.06,2.81,2.81,0,0,0,1.48.38,2.72,2.72,0,0,0,2.49-1.44,3.47,3.47,0,0,0,0-3.08,2.65,2.65,0,0,0-1-1.06,3,3,0,0,0-3,0,2.58,2.58,0,0,0-1,1.06A3.22,3.22,0,0,0,8.52,76Z"/><path class="cls-3" d="M23.26,71.77h1.39v8.82l-6.13-6v5.56H17.13V71.35l6.13,6Z"/><path class="cls-3" d="M26.51,71.77h1.42v7.12h3.33v1.28H26.51Z"/><path class="cls-3" d="M32.28,71.77h1.44v8.4H32.28Z"/><path class="cls-3" d="M41.71,71.77H43.1v8.82l-6.13-6v5.56H35.58V71.35l6.13,6Z"/><path class="cls-3" d="M46.36,76.28v2.64h3.72v1.25H45v-8.4h5.11V73H46.36v2h3.48v1.22Z"/><path class="cls-3" d="M56,77.34a4.09,4.09,0,0,0,.9,1.27,1.78,1.78,0,0,0,1.23.45,1.35,1.35,0,0,0,1-.3,1.25,1.25,0,0,0,0-1.61,2.3,2.3,0,0,0-.7-.49c-.28-.13-.59-.26-.91-.38s-.43-.18-.68-.31a3.3,3.3,0,0,1-.72-.47,2.37,2.37,0,0,1-.55-.7,2.15,2.15,0,0,1-.22-1,2,2,0,0,1,.35-1.16,2.28,2.28,0,0,1,.94-.76A3.25,3.25,0,0,1,58,71.63a2.89,2.89,0,0,1,2.26,1,2.87,2.87,0,0,1,.52.85l-1.1.68a3.11,3.11,0,0,0-.64-.86,1.37,1.37,0,0,0-1-.36,1.34,1.34,0,0,0-.88.27.88.88,0,0,0-.33.72.79.79,0,0,0,.27.61,2.55,2.55,0,0,0,.71.45l.95.38a4.56,4.56,0,0,1,1,.49,2.68,2.68,0,0,1,.81.8,2.28,2.28,0,0,1,.32,1.24,2.32,2.32,0,0,1-.73,1.82,3,3,0,0,1-2.07.66,3.14,3.14,0,0,1-1.93-.63A3.66,3.66,0,0,1,54.94,78Z"/><path class="cls-3" d="M62.37,71.77h1.41V75H68V71.77h1.42v8.4H68V76.32H63.78v3.85H62.37Z"/><path class="cls-3" d="M70.8,76a4.53,4.53,0,0,1,.33-1.74,3.81,3.81,0,0,1,.92-1.37A4.2,4.2,0,0,1,73.43,72a4.84,4.84,0,0,1,3.46,0,4.24,4.24,0,0,1,1.39.91,3.94,3.94,0,0,1,.92,1.37A4.53,4.53,0,0,1,79.52,76a4.48,4.48,0,0,1-.32,1.73,4.24,4.24,0,0,1-.91,1.39A4,4,0,0,1,76.9,80a4.75,4.75,0,0,1-3.48,0A3.93,3.93,0,0,1,72,79.09a4.09,4.09,0,0,1-.91-1.39A4.48,4.48,0,0,1,70.8,76Zm1.5,0a3.25,3.25,0,0,0,.37,1.54,2.71,2.71,0,0,0,1,1.06,3.07,3.07,0,0,0,3,0,2.78,2.78,0,0,0,1-1.06,3.47,3.47,0,0,0,0-3.08,2.65,2.65,0,0,0-1-1.06,3,3,0,0,0-3,0,2.58,2.58,0,0,0-1,1.06A3.22,3.22,0,0,0,72.3,76Z"/><path class="cls-3" d="M82.32,77v3.18H80.91v-8.4h2.53a3.73,3.73,0,0,1,1.59.32,2.44,2.44,0,0,1,1,.9,2.8,2.8,0,0,1,0,2.78,2.44,2.44,0,0,1-1,.9,3.73,3.73,0,0,1-1.59.32Zm0-1.25h1.12a1.83,1.83,0,0,0,1.17-.34,1.37,1.37,0,0,0,0-2A1.78,1.78,0,0,0,83.44,73H82.32Z"/></g></g></svg>