<svg xmlns="http://www.w3.org/2000/svg" viewBox="0 0 196.33 196.35"><defs><style>.cls-1{fill:#d8c4a4;}</style></defs><title>vrre4343</title><g id="Layer_2" data-name="Layer 2"><g id="Layer_1-2" data-name="Layer 1"><g id="jewel"><path class="cls-1" d="M98.19,196.35a3.15,3.15,0,0,1-2.53-1.3L.58,62.59a3.1,3.1,0,0,1-.22-3.22,3,3,0,0,1,2.73-1.69H193.22a3.11,3.11,0,0,1,2.53,4.91L100.69,195A3.09,3.09,0,0,1,98.19,196.35Zm-89-132.5,89,124.1,89-124.1Z"/><path class="cls-1" d="M98.19,196.35a3.09,3.09,0,0,1-3-2.35L63.49,61.5a3.07,3.07,0,0,1,2.26-3.74,3.12,3.12,0,0,1,3.74,2.3l31.7,132.49a3.1,3.1,0,0,1-2.3,3.73A5.5,5.5,0,0,1,98.19,196.35Z"/><path class="cls-1" d="M98.19,196.35a5.14,5.14,0,0,1-.73-.07,3.11,3.11,0,0,1-2.3-3.73l31.7-132.49a3.08,3.08,0,0,1,3.72-2.3,3.12,3.12,0,0,1,2.3,3.74L101.18,194A3.12,3.12,0,0,1,98.19,196.35Z"/><path class="cls-1" d="M193.22,63.85a3.07,3.07,0,0,1-2.68-1.61l-29-52.73L132.57,62.24a3.18,3.18,0,0,1-5.38,0l-29-52.73-29,52.73a3.1,3.1,0,0,1-2.72,1.61h0a3.11,3.11,0,0,1-2.73-1.61l-29-52.73L5.8,62.24a3.07,3.07,0,0,1-4.19,1.23A3.05,3.05,0,0,1,.4,59.26L32.08,1.61A3.08,3.08,0,0,1,34.79,0h0a3.06,3.06,0,0,1,2.71,1.61l29,52.73,29-52.73a3.22,3.22,0,0,1,5.42,0l29,52.73L158.78,1.61a3.24,3.24,0,0,1,5.44,0L196,59.26a3.12,3.12,0,0,1-1.25,4.2A2.92,2.92,0,0,1,193.22,63.85Z"/><path class="cls-1" d="M98.19,196.35a3.15,3.15,0,0,1-2.53-1.3L.58,62.59a3.11,3.11,0,0,1-.18-3.3L32.08,1.61A3.08,3.08,0,0,1,34.79,0H161.5a3.1,3.1,0,0,1,2.72,1.61L196,59.29a3.14,3.14,0,0,1-.21,3.3L100.69,195A3.09,3.09,0,0,1,98.19,196.35ZM6.74,60.55,98.19,188l91.35-127.4L159.68,6.2H36.6Z"/></g></g></g></svg>