<svg xmlns="http://www.w3.org/2000/svg" viewBox="0 0 196.35 159.71"><defs><style>.cls-1{fill:#e5d0a8;}</style></defs><title>Asset 3</title><g id="Layer_2" data-name="Layer 2"><g id="Layer_1-2" data-name="Layer 1"><g id="support"><path class="cls-1" d="M98.18,159.71a52.17,52.17,0,0,1-50.87-40.29C45,109.73,41.47,91.2,40.38,81.8A75.73,75.73,0,0,1,40.77,59l.13-1C44.14,33.69,68.78,15.4,98.18,15.4s54,18.29,57.31,42.54l.16.87c1,7.35,1.64,12.2.36,23-1.07,9.44-4.61,28-6.94,37.59A52.23,52.23,0,0,1,98.18,159.71Zm0-137.81c-26.14,0-48,15.87-50.83,36.91l-.13,1c-.94,7-1.53,11.31-.38,21.24,1.07,9,4.6,27.54,6.8,36.87a45.75,45.75,0,0,0,89.07,0c2.24-9.29,5.78-27.8,6.81-36.87,1.17-10,.58-14.27-.36-21.39l-.11-.88C146.2,37.75,124.32,21.9,98.18,21.9Z"/><path class="cls-1" d="M190.68,85.51A30.49,30.49,0,0,0,171.8,73.32a100.48,100.48,0,0,0-1.34-18.83l-.17-1.07C166.18,23,135.19,0,98.18,0s-68,23-72.1,53.41l-.15,1.19A103.77,103.77,0,0,0,24.6,73.32a30.64,30.64,0,0,0,6,60.68l46.06-.23a3.07,3.07,0,0,0,0-6.15h0l-37,.12c-2.84-12.34-6.9-33.83-8.19-44.83C30,70.06,30.78,64.55,32,55.42l.13-1.19c3.68-27.42,32.08-48.08,66-48.08s62.37,20.67,66.05,48.08l.14,1.07c1.24,9.16,2,14.72.46,27.61-1.3,11.78-5.86,35.44-8.66,47.16a3.07,3.07,0,0,0,2.24,3.73l7.34.19a30.7,30.7,0,0,0,24.92-48.49ZM33.38,127.62A24.43,24.43,0,0,1,25,79.57c.11,1.26.25,2.6.42,4.06C26.65,94.37,30.53,114.9,33.38,127.62ZM189.9,107.37A24.35,24.35,0,0,1,163,127.62c2.86-12.68,6.69-33.2,7.94-44,.17-1.46.32-2.8.43-4.09a24.19,24.19,0,0,1,14.29,9.55A24.5,24.5,0,0,1,189.9,107.37Z"/><path class="cls-1" d="M110.45,141.43H85.91a10.74,10.74,0,1,1,0-21.47h24.54a10.74,10.74,0,1,1,0,21.47ZM85.91,126.1a4.6,4.6,0,1,0,0,9.2h24.54a4.6,4.6,0,1,0,0-9.2Z"/></g></g></g></svg>