<?xml version="1.0" encoding="UTF-8"?>
<svg width="337px" height="138px" viewBox="0 0 337 138" version="1.1" xmlns="http://www.w3.org/2000/svg" xmlns:xlink="http://www.w3.org/1999/xlink">
    <!-- Generator: Sketch 42 (36781) - http://www.bohemiancoding.com/sketch -->
    <title>Asset 12</title>
    <desc>Created with Sketch.</desc>
    <defs></defs>
    <g id="Welcome" stroke="none" stroke-width="1" fill="none" fill-rule="evenodd">
        <g id="Desktop-HD-Copy-3" transform="translate(-129.000000, -1571.000000)" fill-rule="nonzero">
            <g id="Asset-12" transform="translate(129.000000, 1571.000000)">
                <g id="Layer_2">
                    <g>
                        <g id="Layer_1-2">
                            <path d="M0,110.19403 C0.585232073,109.902782 1.14241017,109.558037 1.66445122,109.164179 C2.24547117,108.729571 2.73443177,108.18345 3.10286585,107.557612 C3.57351974,106.736773 3.91325183,105.847227 4.1097561,104.921194 C4.38797966,103.496946 4.51199084,102.046753 4.47963415,100.595821 L4.47963415,72.0895522 L0.369878049,72.0895522 L0.369878049,69.2883582 L14.7540244,69.2883582 L14.7540244,72.0895522 L10.0894512,72.0895522 L10.0894512,100.080896 C10.1554801,102.07869 9.84166785,104.070832 9.1647561,105.951045 C8.64942565,107.310123 7.87466577,108.555447 6.88384146,109.617313 C6.05921608,110.493503 5.06679684,111.194031 3.96591463,111.677015 C3.05902815,112.069809 2.11620172,112.373325 1.15073171,112.583284 L0,110.19403 Z" id="Shape" fill="#DBC4A1"></path>
                            <path d="M20.1378049,94.0459701 C20.1378049,91.8352239 20.185752,89.5695522 20.2816463,87.2489552 C20.3775407,84.9283582 20.4254878,82.7107463 20.4254878,80.5961194 L16.6239634,80.5961194 L16.6239634,78.0832836 L25.6654268,78.0832836 C25.6654268,80.7059701 25.6037805,83.2119403 25.4804878,85.601194 C25.3571951,87.9904478 25.3571951,90.4826866 25.4804878,93.0779104 C25.4396384,94.3224453 25.4877084,95.5683149 25.6243293,96.8059701 C25.7397634,97.7518609 26.0325898,98.6673443 26.487378,99.5041791 C26.8844965,100.21992 27.4854467,100.800768 28.2134756,101.172537 C29.0965685,101.57291 30.0600455,101.763238 31.0286585,101.728657 C32.5892698,101.771031 34.1033679,101.193583 35.2411585,100.12209 C36.4560403,98.9199984 37.3529552,97.4334296 37.8508537,95.7967164 L37.8508537,80.5961194 L34.1931707,80.5961194 L34.1931707,78.0832836 L43.152439,78.0832836 L43.152439,101.996418 L46.8512195,101.996418 L46.8512195,104.509254 L38.4673171,104.509254 L38.1179878,98.8656716 L37.8714024,98.8656716 C37.6598176,99.6026838 37.3264126,100.298908 36.885061,100.925373 C36.3838243,101.70142 35.7670739,102.396025 35.0562195,102.985075 C34.2821951,103.610321 33.4155703,104.110669 32.487622,104.46806 C31.4786933,104.859272 30.4048511,105.054974 29.3231098,105.044776 C27.985827,105.067776 26.6516338,104.908406 25.3571951,104.571045 C24.2610301,104.27667 23.270623,103.676746 22.5009146,102.840896 C21.6563544,101.868982 21.0510704,100.712011 20.7337195,99.4629851 C20.2899264,97.6929352 20.0894349,95.8704164 20.1378049,94.0459701 L20.1378049,94.0459701 Z" id="Shape" fill="#DBC4A1"></path>
                            <path d="M55.5844512,104.509254 L49.2143293,80.5961194 L46.1936585,80.5961194 L46.1936585,78.0832836 L58.0503049,78.0832836 L58.0503049,80.5961194 L54.6803049,80.5961194 L58.790061,97.5680597 L59.3859756,101.440299 L59.6942073,101.440299 L60.4545122,97.5062687 L66.4753049,78.721791 L70.4412195,78.721791 L75.5578659,96.3940299 L76.6675,101.419701 L76.9140854,101.419701 L77.8593293,96.4970149 L81.8252439,80.5961194 L78.7840244,80.5961194 L78.7840244,78.0832836 L88.4830488,78.0832836 L88.4830488,80.5961194 L85.3185366,80.5961194 L78.6812805,104.509254 L72.8043293,104.509254 L68.6945732,89.4528358 C68.611923,89.2197836 68.5567514,88.9778413 68.5301829,88.7319403 C68.5301829,88.278806 68.3452439,87.7638806 68.2014024,87.1871642 C68.057561,86.6104478 67.8931707,85.8277612 67.7082317,85.0244776 L67.4,85.0244776 L66.8040854,87.1871642 L66.3520122,88.6907463 C66.2636052,88.938957 66.1948956,89.1937792 66.1465244,89.4528358 L61.029878,104.509254 L55.5844512,104.509254 Z" id="Shape" fill="#DBC4A1"></path>
                            <path d="M111.579878,101.048955 C110.634983,102.347583 109.356797,103.365415 107.881098,103.994328 C106.12334,104.750725 104.224919,105.122874 102.312378,105.08597 C100.309455,105.120842 98.3172485,104.785701 96.4354268,104.097313 C93.1755382,102.918267 90.642208,100.295361 89.5721341,96.9913433 C88.9627562,95.1663187 88.6640546,93.251534 88.6885366,91.3271642 C88.4037538,87.5820678 89.6161262,83.877134 92.0585366,81.0286567 C94.5896218,78.586409 98.024531,77.3167664 101.531524,77.5271642 C102.869975,77.5288723 104.202728,77.701914 105.497439,78.0420896 C106.748381,78.3598836 107.922525,78.9273173 108.949634,79.7104478 C109.993495,80.5271338 110.83114,81.5784115 111.394939,82.779403 C112.058101,84.2676252 112.374332,85.8877137 112.319634,87.5167164 C112.350931,88.1204883 112.350931,88.7254818 112.319634,89.3292537 C112.319634,89.9677612 112.155244,90.6474627 112.011402,91.3889552 L94.2983537,91.3889552 C94.2689708,92.7841046 94.4632311,94.1749353 94.8737195,95.5083582 C95.2235269,96.6204284 95.8048544,97.6454047 96.5792683,98.5155224 C97.3987663,99.4161276 98.4101427,100.120121 99.5382927,100.575224 C100.850013,101.075289 102.24486,101.31996 103.648049,101.296119 C104.904011,101.303614 106.150701,101.080219 107.32628,100.637015 C108.306963,100.289183 109.223483,99.7811297 110.03872,99.1334328 L111.579878,101.048955 Z M101.305488,79.9576119 C100.367779,79.9394362 99.4346373,80.0929982 98.5519512,80.4107463 C97.7447346,80.7179229 97.0349285,81.2372976 96.4970732,81.9143284 C95.8633533,82.7481827 95.4022531,83.7005589 95.1408537,84.7155224 C94.778737,86.1234949 94.5720095,87.5670769 94.5243902,89.0202985 L106.66872,89.0202985 L106.66872,88.0934328 L106.66872,87.2077612 C106.766435,85.348628 106.300823,83.5033472 105.333049,81.9143284 C104.408047,80.5979082 102.867645,79.857092 101.26439,79.9576119 L101.305488,79.9576119 Z" id="Shape" fill="#DBC4A1"></path>
                            <polygon id="Shape" fill="#DBC4A1" points="128.306585 104.509254 115.58689 104.509254 115.58689 101.996418 119.30622 101.996418 119.30622 69.2883582 115.073171 69.2883582 115.073171 66.7549254 124.607805 66.7549254 124.607805 101.996418 128.327134 101.996418"></polygon>
                            <path d="M143.841463,104.509254 L131.10122,104.509254 L131.10122,101.996418 L134.820549,101.996418 L134.820549,80.5961194 L131.10122,80.5961194 L131.10122,78.0832836 L140.081037,78.0832836 L140.081037,101.996418 L143.841463,101.996418 L143.841463,104.509254 Z M133.731463,70.0298507 C133.698655,69.1428261 134.07817,68.2907169 134.758902,67.7229851 C135.504413,67.1289651 136.437454,66.8220923 137.389146,66.8579104 C138.362242,66.8030985 139.321141,67.1112533 140.081037,67.7229851 C140.71024,68.3288467 141.06588,69.1656061 141.06588,70.0401493 C141.06588,70.9146924 140.71024,71.7514518 140.081037,72.3573134 C139.321141,72.9690452 138.362242,73.2772 137.389146,73.2223881 C136.437454,73.2582062 135.504413,72.9513334 134.758902,72.3573134 C134.069668,71.7871123 133.688922,70.9246068 133.731463,70.0298507 Z" id="Shape" fill="#DBC4A1"></path>
                            <path d="M169.527439,101.048955 C168.582544,102.347583 167.304358,103.365415 165.828659,103.994328 C164.074166,104.733736 162.183173,105.091762 160.280488,105.044776 C158.277564,105.079648 156.285358,104.744507 154.403537,104.056119 C151.143648,102.877073 148.610318,100.254167 147.540244,96.9501493 C146.930866,95.1251247 146.632164,93.21034 146.656646,91.2859701 C146.371864,87.5408738 147.584236,83.83594 150.026646,80.9874627 C152.557732,78.545215 155.992641,77.2755724 159.499634,77.4859701 C160.838085,77.4876783 162.170838,77.6607199 163.465549,78.0008955 C164.716491,78.3186896 165.890635,78.8861233 166.917744,79.6692537 C167.961605,80.4859398 168.79925,81.5372175 169.363049,82.738209 C170.02621,84.2264312 170.342442,85.8465197 170.287744,87.4755224 C170.31904,88.0792943 170.31904,88.6842878 170.287744,89.2880597 C170.287744,89.9265672 170.123354,90.6062687 169.979512,91.3477612 L152.245915,91.3477612 C152.216532,92.7429106 152.410792,94.1337413 152.82128,95.4671642 C153.17585,96.6211589 153.779149,97.6829275 154.588476,98.5773134 C155.407974,99.4779186 156.41935,100.181912 157.5475,100.637015 C158.85922,101.13708 160.254067,101.381751 161.657256,101.35791 C162.913219,101.365405 164.159908,101.14201 165.335488,100.698806 C166.31617,100.350974 167.23269,99.8429208 168.047927,99.1952239 L169.527439,101.048955 Z M159.253049,79.9576119 C158.31534,79.9394362 157.382198,80.0929982 156.499512,80.4107463 C155.692296,80.7179229 154.982489,81.2372976 154.444634,81.9143284 C153.810914,82.7481827 153.349814,83.7005589 153.088415,84.7155224 C152.712422,86.1219407 152.491909,87.565547 152.430854,89.0202985 L164.575183,89.0202985 L164.575183,88.0934328 L164.575183,87.2077612 C164.672899,85.348628 164.207286,83.5033472 163.239512,81.9143284 C162.322396,80.6108162 160.800958,79.871654 159.211951,79.9576119 L159.253049,79.9576119 Z" id="Shape" fill="#DBC4A1"></path>
                            <path d="M185.534939,82.6146269 C184.823906,82.970492 184.177835,83.4439967 183.623902,84.0152239 C183.003835,84.7205691 182.466089,85.4945304 182.021098,86.3220896 L182.021098,101.975821 L186.397988,101.975821 L186.397988,104.488657 L173.04128,104.488657 L173.04128,101.996418 L176.719512,101.996418 L176.719512,80.5961194 L173.04128,80.5961194 L173.04128,78.0832836 L182.021098,78.0832836 L182.021098,83.1707463 L182.226585,83.1707463 C182.773366,82.1177922 183.465093,81.1471021 184.281463,80.2871642 C185.062212,79.4585707 185.938226,78.7256933 186.891159,78.1038806 L191.720122,78.1038806 L191.720122,82.6352239 L185.534939,82.6146269 Z" id="Shape" fill="#DBC4A1"></path>
                            <path d="M200.391707,104.509254 L200.391707,67.578806 L214.262134,67.578806 C220.180183,67.578806 224.310488,70.8949254 224.310488,76.9916418 C224.402597,80.9933026 221.698978,84.5179723 217.817073,85.4570149 C222.027719,86.4532197 225.01448,90.2039393 225.050244,94.5402985 C225.050244,100.863582 220.940488,104.509254 214.488171,104.509254 L200.391707,104.509254 Z M222.378902,76.9916418 C222.474931,74.8211494 221.621687,72.7166313 220.042359,71.2285782 C218.463031,69.7405252 216.314727,69.0169653 214.15939,69.2471642 L202.158902,69.2471642 L202.158902,84.6949254 L214.262134,84.6949254 C216.398117,84.9131051 218.522948,84.1877017 220.082016,82.7080558 C221.641084,81.2284099 222.479674,79.1413551 222.378902,76.9916418 Z M223.09811,94.6020896 C223.149755,92.332319 222.245622,90.1456378 220.607279,88.5779156 C218.968936,87.0101933 216.747795,86.2063164 214.488171,86.3632836 L202.158902,86.3632836 L202.158902,102.840896 L214.488171,102.840896 C219.871951,102.861493 223.09811,99.6483582 223.09811,94.6020896 L223.09811,94.6020896 Z" id="Shape" fill="#877B6D"></path>
                            <path d="M230.639512,74.561194 C230.661055,73.7626549 231.301806,73.1203998 232.098476,73.098806 C232.904239,73.098806 233.557439,73.7535394 233.557439,74.561194 C233.557439,75.3688487 232.904239,76.0235821 232.098476,76.0235821 C231.301806,76.0019882 230.661055,75.3597332 230.639512,74.561194 L230.639512,74.561194 Z M231.338171,104.509254 L231.338171,80.2047761 L232.838232,80.2047761 L232.838232,104.509254 L231.338171,104.509254 Z" id="Shape" fill="#877B6D"></path>
                            <path d="M256.346037,104.509254 L256.346037,87.5373134 C256.346037,82.4498507 253.839085,80.9462687 250.05811,80.9462687 C246.659959,81.1175716 243.513209,82.7927345 241.46872,85.518806 L241.46872,104.488657 L239.968659,104.488657 L239.968659,80.2047761 L241.46872,80.2047761 L241.46872,84.0358209 C243.676901,81.4214623 246.852876,79.8223093 250.263598,79.6074627 C255.092561,79.6074627 257.846098,81.8319403 257.846098,87.5579104 L257.846098,104.529851 L256.346037,104.509254 Z" id="Shape" fill="#877B6D"></path>
                            <path d="M265.243659,110.708955 L266.353293,109.452537 C268.288716,111.993763 271.398568,113.349725 274.572805,113.036418 C279.401768,113.036418 283.306037,110.564776 283.306037,104.67403 L283.306037,100.431045 C281.345304,103.354691 278.086642,105.137712 274.572805,105.209552 C268.038293,105.209552 263.723049,100.12209 263.723049,92.418806 C263.723049,84.7155224 268.038293,79.5868657 274.572805,79.5868657 C278.09603,79.6586909 281.353445,81.4803324 283.264939,84.4477612 L283.264939,80.3283582 L284.765,80.3283582 L284.765,104.67403 C284.765,111.615224 280.38811,114.395821 274.49061,114.395821 C270.997056,114.722455 267.558862,113.351607 265.243659,110.708955 L265.243659,110.708955 Z M283.264939,98.8656716 L283.264939,85.8895522 C281.359282,82.8842083 278.083383,81.0299463 274.531707,80.9462687 C268.613659,80.9462687 265.346402,86.0337313 265.346402,92.418806 C265.346402,98.8038806 268.613659,103.850149 274.531707,103.850149 C278.091306,103.757427 281.36888,101.886758 283.264939,98.8656716 L283.264939,98.8656716 Z" id="Shape" fill="#877B6D"></path>
                            <path d="M290.600854,92.3364179 C290.600854,85.2922388 295.470915,79.6074627 302.005427,79.6074627 C309.444085,79.6074627 313.266159,85.601194 313.266159,92.3364179 L313.266159,92.8513433 L292.306402,92.8513433 C292.450244,98.7832836 296.416159,103.767761 302.580793,103.767761 C305.793794,103.834174 308.876604,102.495906 311.026341,100.101493 L311.930488,101.048955 C309.571125,103.73507 306.150474,105.242182 302.580793,105.168358 C295.470915,105.044776 290.600854,99.7307463 290.600854,92.3364179 Z M301.94378,80.9668657 C295.779146,80.9668657 292.450244,86.7134328 292.306402,91.4919403 L311.642805,91.4919403 C311.642805,86.7958209 308.581037,80.9462687 301.94378,80.9462687 L301.94378,80.9668657 Z" id="Shape" fill="#877B6D"></path>
                            <path d="M335.438293,104.509254 L335.438293,87.5373134 C335.438293,82.4498507 332.931341,80.9462687 329.150366,80.9462687 C325.748732,81.1225303 322.60136,82.8055718 320.560976,85.539403 L320.560976,104.509254 L319.060915,104.509254 L319.060915,80.2047761 L320.560976,80.2047761 L320.560976,84.0358209 C322.769157,81.4214623 325.945132,79.8223093 329.355854,79.6074627 C334.184817,79.6074627 336.938354,81.8319403 336.938354,87.5579104 L336.938354,104.529851 L335.438293,104.509254 Z" id="Shape" fill="#877B6D"></path>
                            <path d="M76.8318902,135.301791 L77.5921951,134.416119 C78.6412957,135.704535 80.2072502,136.459164 81.8663415,136.475821 C84.6815244,136.475821 85.4829268,134.910448 85.4829268,133.736418 C85.4829268,129.617015 77.2634146,131.800299 77.2634146,127.001194 C77.2634146,124.756119 79.3182927,123.334925 81.7635976,123.334925 C83.522325,123.253111 85.2255437,123.963193 86.407622,125.271045 L85.6267683,126.136119 C84.651991,124.987206 83.2055649,124.349588 81.7019512,124.40597 C79.8731098,124.40597 78.4963415,125.456418 78.4963415,126.939403 C78.4963415,130.461493 86.7158537,128.525373 86.7158537,133.65403 C86.7158537,135.425373 85.5445732,137.546866 81.8457927,137.546866 C79.9201636,137.605145 78.0735154,136.778271 76.8318902,135.301791 Z" id="Shape" fill="#877B6D"></path>
                            <polygon id="Shape" fill="#877B6D" points="99.8054268 137.23791 99.8054268 123.58209 108.497561 123.58209 108.497561 124.653134 100.976707 124.653134 100.976707 129.761194 108.35372 129.761194 108.35372 130.832239 100.976707 130.832239 100.976707 136.269851 108.497561 136.269851 108.497561 137.340896"></polygon>
                            <polygon id="Shape" fill="#877B6D" points="121.669329 137.23791 121.669329 123.58209 122.84061 123.58209 122.84061 137.320299"></polygon>
                            <polygon id="Shape" fill="#877B6D" points="140.01939 137.23791 140.01939 124.570746 135.621951 124.570746 135.621951 123.58209 145.690854 123.58209 145.690854 124.653134 141.21122 124.653134 141.21122 137.320299"></polygon>
                            <path d="M173.431707,137.23791 L173.431707,136.269851 C178.09628,132.500597 181.219695,129.822985 181.219695,127.16597 C181.212255,126.366576 180.869311,125.607277 180.274938,125.074222 C179.680566,124.541166 178.889719,124.28364 178.09628,124.364776 C176.625189,124.306411 175.219398,124.976306 174.335854,126.156716 L173.534451,125.415224 C174.642377,124.041374 176.335606,123.276868 178.09628,123.355522 C179.190954,123.252051 180.279047,123.611154 181.098258,124.346265 C181.917469,125.081375 182.393474,126.125799 182.411524,127.227761 C182.411524,130.255522 179.226463,133.015522 175.260549,136.228657 L182.473171,136.228657 L182.473171,137.299701 L173.431707,137.23791 Z" id="Shape" fill="#877B6D"></path>
                            <path d="M195.706585,130.379104 C195.706585,127.104179 197.083354,123.293731 200.782134,123.293731 C204.480915,123.293731 205.837134,127.104179 205.837134,130.379104 C205.837134,133.65403 204.439817,137.485075 200.782134,137.485075 C197.124451,137.485075 195.706585,133.633433 195.706585,130.379104 Z M204.583659,130.379104 C204.583659,127.536716 203.658963,124.364776 200.782134,124.364776 C197.905305,124.364776 196.939512,127.536716 196.939512,130.379104 C196.939512,133.221493 197.884756,136.41403 200.782134,136.41403 C203.679512,136.41403 204.583659,133.200896 204.583659,130.379104 Z" id="Shape" fill="#877B6D"></path>
                            <path d="M218.474634,130.379104 C218.474634,127.104179 219.851402,123.293731 223.550183,123.293731 C227.248963,123.293731 228.605183,127.104179 228.605183,130.379104 C228.605183,133.65403 227.207866,137.485075 223.550183,137.485075 C219.8925,137.485075 218.474634,133.633433 218.474634,130.379104 Z M227.351707,130.379104 C227.351707,127.536716 226.427012,124.364776 223.550183,124.364776 C220.673354,124.364776 219.707561,127.536716 219.707561,130.379104 C219.707561,133.221493 220.652805,136.41403 223.550183,136.41403 C226.447561,136.41403 227.351707,133.200896 227.351707,130.379104 L227.351707,130.379104 Z" id="Shape" fill="#877B6D"></path>
                            <path d="M241.263232,133.880597 C241.450873,132.033801 242.847667,130.540952 244.674329,130.234925 C243.050976,129.802388 241.489268,128.75194 241.489268,126.918806 C241.489268,124.488358 243.749634,123.376119 245.927805,123.376119 C248.105976,123.376119 250.366341,124.488358 250.366341,126.918806 C250.366341,128.75194 248.804634,129.802388 247.18128,130.234925 C248.999889,130.549281 250.386446,132.04017 250.571829,133.880597 C250.571829,136.105075 248.516951,137.567463 245.927805,137.567463 C243.338659,137.567463 241.263232,136.043284 241.263232,133.880597 Z M249.482744,133.880597 C249.482744,131.820896 246.831951,130.955821 246.01,130.852836 C245.188049,130.749851 242.47561,131.614925 242.47561,133.715821 C242.47561,135.384179 244.119512,136.41403 245.948354,136.41403 C247.777195,136.41403 249.400549,135.384179 249.400549,133.715821 L249.482744,133.880597 Z M249.256707,127.124776 C249.256707,125.477015 247.797744,124.529552 246.01,124.529552 C244.222256,124.529552 242.763293,125.477015 242.763293,127.124776 C242.763293,128.772537 245.188049,129.658209 246.01,129.822985 C246.770305,129.493433 249.174512,128.875522 249.174512,126.96 L249.256707,127.124776 Z" id="Shape" fill="#877B6D"></path>
                            <polygon id="Shape" fill="#B29E84" points="148.423841 0.12358209 152.533598 7.27074627 156.663902 14.4179104 148.423841 14.4179104 140.18378 14.4179104 144.314085 7.27074627"></polygon>
                            <polygon id="Shape" fill="#B29E84" points="189.521402 0.12358209 193.631159 7.27074627 197.761463 14.4179104 189.521402 14.4179104 181.281341 14.4179104 185.411646 7.27074627"></polygon>
                            <polygon id="Shape" fill="#FFE2C0" points="168.972622 0.12358209 173.082378 7.27074627 177.212683 14.4179104 168.972622 14.4179104 160.732561 14.4179104 164.862866 7.27074627"></polygon>
                            <polygon id="Shape" fill="#DBC4A1" points="158.698232 14.2943284 154.588476 7.14716418 150.458171 0 158.698232 0 166.938293 0 162.807988 7.14716418"></polygon>
                            <polygon id="Shape" fill="#DBC4A1" points="168.972622 53.5522388 163.835427 35.0149254 158.677683 16.4776119 168.972622 16.4776119 179.267561 16.4776119 174.109817 35.0149254"></polygon>
                            <polygon id="Shape" fill="#DBC4A1" points="179.247012 14.2943284 175.137256 7.14716418 171.006951 0 179.247012 0 187.487073 0 183.356768 7.14716418"></polygon>
                            <polygon id="Shape" fill="#B29E84" points="156.663902 16.4776119 140.224878 16.4776119 166.938293 53.5522388"></polygon>
                            <polygon id="Shape" fill="#B29E84" points="181.322439 16.4776119 171.048049 53.5522388 197.761463 16.4776119"></polygon>
                        </g>
                    </g>
                </g>
            </g>
        </g>
    </g>
</svg>