<svg xmlns="http://www.w3.org/2000/svg" viewBox="0 0 161.65 64.73"><defs><style>.cls-1{fill:#dbc4a1;}.cls-2{fill:#ffe2c0;}.cls-3{fill:#d6bc97;}.cls-4{fill:#b29e84;}</style></defs><title>Asset 13</title><g id="Layer_2" data-name="Layer 2"><g id="Layer_1-2" data-name="Layer 1"><path class="cls-1" d="M0,53.5A5.17,5.17,0,0,0,.81,53a2.66,2.66,0,0,0,.7-.78A4.41,4.41,0,0,0,2,50.94a9.79,9.79,0,0,0,.18-2.1V35h-2V33.64h7V35H4.91V48.59a7.65,7.65,0,0,1-.45,2.85,5.43,5.43,0,0,1-1.11,1.78,4.35,4.35,0,0,1-1.42,1,7.42,7.42,0,0,1-1.37.44Z"/><path class="cls-1" d="M9.55,45.66q0-1.61.07-3.3t.07-3.23H7.84V37.91h4.4q0,1.91-.09,3.65t0,3.63A12.67,12.67,0,0,0,12.23,47a3.67,3.67,0,0,0,.42,1.31,2,2,0,0,0,.84.81,3.06,3.06,0,0,0,1.37.27,2.88,2.88,0,0,0,2.05-.78,5,5,0,0,0,1.27-2.1V39.13H16.4V37.91h4.35V49.52h1.81v1.22H18.47L18.3,48h-.12A3.33,3.33,0,0,1,17.71,49a4.4,4.4,0,0,1-.89,1,4.65,4.65,0,0,1-1.25.72A4.16,4.16,0,0,1,14,51a7.18,7.18,0,0,1-1.93-.23,2.92,2.92,0,0,1-1.39-.84,4,4,0,0,1-.86-1.64A9.73,9.73,0,0,1,9.55,45.66Z"/><path class="cls-1" d="M26.56,50.74l-3.1-11.61H22V37.91h5.77v1.22H26.12l2,8.24.29,1.88h.15L29,47.35l2.93-9.12h1.93l2.49,8.58.54,2.44H37l.46-2.39,1.93-7.72H37.85V37.91h4.72v1.22H41L37.8,50.74H34.94l-2-7.31a1.54,1.54,0,0,1-.08-.35c0-.22-.09-.47-.16-.75s-.15-.66-.24-1.05h-.15l-.29,1.05-.22.73a2.43,2.43,0,0,0-.1.37l-2.49,7.31Z"/><path class="cls-1" d="M53.57,49.06a4.32,4.32,0,0,1-1.8,1.43A6.55,6.55,0,0,1,49,51a7.94,7.94,0,0,1-2.86-.48,5.46,5.46,0,0,1-3.34-3.45,8.33,8.33,0,0,1-.43-2.75,6.87,6.87,0,0,1,1.64-5,6.12,6.12,0,0,1,4.61-1.7,7.65,7.65,0,0,1,1.93.25,4.67,4.67,0,0,1,1.68.81,4.11,4.11,0,0,1,1.19,1.49,5.21,5.21,0,0,1,.45,2.3,8.48,8.48,0,0,1,0,.88c0,.31-.08.64-.15,1H45.16a6.33,6.33,0,0,0,.28,2,4,4,0,0,0,.86,1.51,3.94,3.94,0,0,0,1.44,1,5.37,5.37,0,0,0,2,.35,5,5,0,0,0,1.79-.32,4.59,4.59,0,0,0,1.32-.73Zm-5-10.24a3.75,3.75,0,0,0-1.34.22,2.34,2.34,0,0,0-1,.73,3.82,3.82,0,0,0-.66,1.36,9.64,9.64,0,0,0-.32,2.09h5.91c0-.15,0-.3,0-.45s0-.3,0-.43a4.48,4.48,0,0,0-.65-2.57A2.25,2.25,0,0,0,48.54,38.82Z"/><path class="cls-1" d="M61.46,50.74H55.28V49.52h1.81V33.64H55V32.41h4.64V49.52h1.81Z"/><path class="cls-1" d="M68.77,50.74H62.58V49.52h1.81V39.13H62.58V37.91H67V49.52h1.81ZM63.85,34a1.39,1.39,0,0,1,.5-1.12,1.94,1.94,0,0,1,1.28-.42,1.92,1.92,0,0,1,1.31.42,1.56,1.56,0,0,1,0,2.25,1.92,1.92,0,0,1-1.31.42,1.94,1.94,0,0,1-1.28-.42A1.38,1.38,0,0,1,63.85,34Z"/><path class="cls-1" d="M81,49.06a4.32,4.32,0,0,1-1.8,1.43,6.55,6.55,0,0,1-2.71.53,7.94,7.94,0,0,1-2.86-.48,5.46,5.46,0,0,1-3.34-3.45,8.33,8.33,0,0,1-.43-2.75,6.87,6.87,0,0,1,1.64-5,6.12,6.12,0,0,1,4.61-1.7,7.65,7.65,0,0,1,1.93.25,4.67,4.67,0,0,1,1.68.81,4.11,4.11,0,0,1,1.19,1.49,5.21,5.21,0,0,1,.45,2.3,8.48,8.48,0,0,1,0,.88c0,.31-.08.64-.15,1H72.63a6.33,6.33,0,0,0,.28,2,4,4,0,0,0,.86,1.51,3.94,3.94,0,0,0,1.44,1,5.37,5.37,0,0,0,2,.35A5,5,0,0,0,79,48.86a4.59,4.59,0,0,0,1.32-.73ZM76,38.82a3.75,3.75,0,0,0-1.34.22,2.34,2.34,0,0,0-1,.73A3.82,3.82,0,0,0,73,41.13a9.64,9.64,0,0,0-.32,2.09h5.91c0-.15,0-.3,0-.45s0-.3,0-.43A4.48,4.48,0,0,0,78,39.77,2.25,2.25,0,0,0,76,38.82Z"/><path class="cls-1" d="M88.58,40.11a3.44,3.44,0,0,0-.93.68,6,6,0,0,0-.78,1.12v7.6H89v1.22H82.5V49.52h1.81V39.13H82.5V37.91h4.37v2.47H87a6.15,6.15,0,0,1,1-1.4,7,7,0,0,1,1.27-1.06h2.35v2.2Z"/><path class="cls-2" d="M95.36,50.74V33.4h7.12c2.91,0,4.78,1.69,4.78,4.42a4,4,0,0,1-3,4,4.35,4.35,0,0,1,3.38,4.26c0,2.89-1.87,4.68-5,4.68ZM105.71,38a3.12,3.12,0,0,0-3.41-3.22H96.84v6.42h5.46A3.09,3.09,0,0,0,105.71,38Zm.34,8a3.37,3.37,0,0,0-3.64-3.43H96.84v6.86h5.56C104.69,49.39,106,48.06,106,46Z"/><path class="cls-2" d="M109.76,36.1a1,1,0,0,1,1-1,1,1,0,0,1,1,1,1,1,0,0,1-1,1A1,1,0,0,1,109.76,36.1Zm.34,14.64V38.94h1.27V50.74Z"/><path class="cls-2" d="M122.33,50.74v-8c0-2.27-1.15-3-2.86-3a5.05,5.05,0,0,0-3.84,2v8.92h-1.27V38.94h1.27v1.79a6,6,0,0,1,4.25-2.08c2.4,0,3.71,1.17,3.71,3.84v8.26Z"/><path class="cls-2" d="M126.6,53.75l.73-1a4.52,4.52,0,0,0,3.91,1.66c2.15,0,4-1.08,4-3.79V48.79a5.12,5.12,0,0,1-4.11,2.2c-3.13,0-5.28-2.37-5.28-6.16s2.15-6.18,5.28-6.18a5,5,0,0,1,4.11,2.2V38.94h1.29V50.62c0,3.62-2.44,4.91-5.33,4.91A5.67,5.67,0,0,1,126.6,53.75Zm8.68-6.06V41.94a4.75,4.75,0,0,0-3.89-2.15c-2.62,0-4.13,2.18-4.13,5s1.52,5,4.13,5A4.75,4.75,0,0,0,135.28,47.69Z"/><path class="cls-2" d="M138.84,44.83c0-3.42,2.42-6.18,5.7-6.18,3.59,0,5.57,2.86,5.57,6.26v.34h-9.88a4.6,4.6,0,0,0,4.62,4.69,5.19,5.19,0,0,0,3.86-1.64l.66.83A6.09,6.09,0,0,1,144.76,51C141.31,51,138.84,48.47,138.84,44.83Zm5.67-5.08a4.45,4.45,0,0,0-4.28,4.5h8.58A4.33,4.33,0,0,0,144.51,39.74Z"/><path class="cls-2" d="M160.38,50.74v-8c0-2.27-1.15-3-2.86-3a5.05,5.05,0,0,0-3.84,2v8.92h-1.27V38.94h1.27v1.79a6,6,0,0,1,4.25-2.08c2.4,0,3.71,1.17,3.71,3.84v8.26Z"/><path class="cls-3" d="M46.4,63.88l.4-.51a2.2,2.2,0,0,0,1.67.77c1,0,1.25-.51,1.25-.93,0-1.37-3.16-.61-3.16-2.51,0-.88.78-1.49,1.84-1.49A2.51,2.51,0,0,1,50.3,60l-.4.49a2,2,0,0,0-1.54-.64c-.63,0-1.1.34-1.1.85,0,1.2,3.16.51,3.16,2.5,0,.77-.53,1.57-2,1.57A2.65,2.65,0,0,1,46.4,63.88Z"/><path class="cls-3" d="M55.41,64.63V59.3h3.49v.59H56.08v1.72h2.77v.59H56.08V64h2.83v.59Z"/><path class="cls-3" d="M64,64.63V59.3h.66v5.33Z"/><path class="cls-3" d="M71.2,64.63V59.89H69.51V59.3h4v.59h-1.7v4.74Z"/><path class="cls-3" d="M84.32,64.63v-.54c1.92-1.5,3-2.39,3-3.31a1,1,0,0,0-1.12-1,1.78,1.78,0,0,0-1.45.67l-.41-.42a2.29,2.29,0,0,1,1.85-.84A1.62,1.62,0,0,1,88,60.79c0,1.09-1.1,2.08-2.59,3.25H88v.59Z"/><path class="cls-3" d="M93,62c0-1.3.58-2.75,2-2.75s2,1.45,2,2.75-.58,2.76-2,2.76S93,63.26,93,62Zm3.4,0c0-1.06-.34-2.16-1.36-2.16S93.68,60.9,93.68,62,94,64.13,95,64.13,96.39,63,96.39,62Z"/><path class="cls-3" d="M102.91,64.63V60.17l-.86.91-.4-.41L103,59.3h.58v5.33Z"/><path class="cls-3" d="M109.62,64.63V60.17l-.86.91-.4-.41,1.33-1.37h.58v5.33Z"/><polygon class="cls-4" points="71 0.06 73.01 3.53 75.01 7 71 7 67 7 69 3.53 71 0.06"/><polygon class="cls-4" points="91 0.06 93.01 3.53 95.01 7 91 7 87 7 89 3.53 91 0.06"/><polygon class="cls-2" points="81 0.06 83.01 3.53 85.01 7 81 7 77 7 79 3.53 81 0.06"/><polygon class="cls-1" points="76 6.94 74 3.47 72 0 76 0 80.01 0 78.01 3.47 76 6.94"/><polygon class="cls-1" points="81 26 78.5 17 76 8 81 8 86.01 8 83.51 17 81 26"/><polygon class="cls-1" points="86 6.94 84 3.47 82 0 86 0 90.01 0 88.01 3.47 86 6.94"/><polygon class="cls-4" points="75.01 8 67.01 8 80.01 26 75.01 8"/><polygon class="cls-4" points="87.01 8 82.01 26 95.01 8 87.01 8"/></g></g></svg>