<svg xmlns="http://www.w3.org/2000/svg" viewBox="0 0 196.35 196.35"><title>Asset 5</title><g id="Layer_2" data-name="Layer 2"><g id="Layer_1-2" data-name="Layer 1"><path d="M98.18,126.55a3.07,3.07,0,0,1-3.08-3.07V108.15a3.07,3.07,0,0,1,3.08-3.07A24.54,24.54,0,1,0,73.63,80.53a3.07,3.07,0,0,1-6.13,0,30.68,30.68,0,1,1,33.75,30.53v12.43A3.08,3.08,0,0,1,98.18,126.55Z"/><path d="M102.77,138.82a4.6,4.6,0,1,1-4.59-4.6A4.61,4.61,0,0,1,102.77,138.82Z"/><path d="M193.28,196.35a3,3,0,0,1-.81-.11L146,183.81A98.46,98.46,0,1,1,183.79,146l12.46,46.44a3.19,3.19,0,0,1-.81,3A3.05,3.05,0,0,1,193.28,196.35ZM98.18,6.14a92,92,0,1,0,45.88,171.73,3.15,3.15,0,0,1,2.33-.33l42.53,11.41-11.39-42.53a3.12,3.12,0,0,1,.31-2.34A91.89,91.89,0,0,0,98.18,6.14Z"/></g></g></svg>