<?xml version="1.0" encoding="UTF-8"?>
<svg width="76px" height="77px" viewBox="0 0 76 77" version="1.1" xmlns="http://www.w3.org/2000/svg" xmlns:xlink="http://www.w3.org/1999/xlink">
    <!-- Generator: Sketch 42 (36781) - http://www.bohemiancoding.com/sketch -->
    <title>Page 1 Copy 3</title>
    <desc>Created with Sketch.</desc>
    <defs>
        <polygon id="path-1" points="75.2840204 0.251639384 75.2840204 75.9157099 0 75.9157099 0 0.251639384 75.2816759 0.251639384 3.0060593e-05 0.251600848 3.0060593e-05 24.8566658 75.2816759 24.8566658 75.2816759 0.251639384"></polygon>
    </defs>
    <g id="Welcome" stroke="none" stroke-width="1" fill="none" fill-rule="evenodd" opacity="0.898211051">
        <g id="Desktop-HD" transform="translate(-404.000000, -1677.000000)">
            <g id="Group-24" transform="translate(0.000000, 1426.000000)">
                <g id="Group-23" transform="translate(309.000000, 94.000000)">
                    <g id="Page-1-Copy-3" transform="translate(95.000000, 157.000000)">
                        <path d="M3.50730824,24.9901029 L37.6520566,72.814688 L71.773031,24.9901029 L3.50730824,24.9901029 Z M37.6520566,76.0493909 C37.2620873,76.0493909 36.9096961,75.8586383 36.6800091,75.548039 L0.223053255,24.5045507 C-0.0342421448,24.1346061 -0.0679858038,23.6613853 0.137927206,23.2633096 C0.326201485,22.8617656 0.737644054,22.6108969 1.18321373,22.6108969 L74.089073,22.6108969 C74.544229,22.6108969 74.944168,22.8617656 75.1481638,23.2633096 C75.3559941,23.6613853 75.3245511,24.1346061 75.0592032,24.5045507 L38.6099164,75.548039 C38.3863646,75.8586383 38.0339735,76.0493909 37.6520566,76.0493909 L37.6520566,76.0493909 Z" id="Fill-1" fill="#000000"></path>
                        <path d="M37.6520182,76.0494295 C37.1155708,76.0494295 36.6224532,75.6794849 36.499749,75.1422945 L24.3435958,24.0830066 C24.1813962,23.4386864 24.579418,22.7901273 25.2105778,22.6425349 C25.8444218,22.4953277 26.4893858,22.885311 26.6439164,23.5300165 L38.7981523,74.5850655 C38.9522995,75.2220638 38.5584956,75.8586768 37.9154489,76.022069 C37.8280221,76.0336298 37.7348436,76.0494295 37.6520182,76.0494295" id="Fill-3" fill="#000000"></path>
                        <path d="M37.6520182,76.0494295 C37.5550052,76.0494295 37.4522404,76.0336298 37.3728662,76.022069 C36.7313532,75.8586768 36.3356321,75.2220638 36.4901627,74.5850655 L48.6443986,23.5300165 C48.7985458,22.885311 49.418202,22.4953277 50.0693013,22.6425349 C50.7050625,22.7901273 51.0988663,23.4386864 50.9523882,24.0830066 L38.7981523,75.1422945 C38.6597266,75.6794849 38.1804133,76.0494295 37.6520182,76.0494295" id="Fill-5" fill="#000000"></path>
                        <g id="Group-9" transform="translate(0.000000, 0.133720)">
                            <mask id="mask-2" fill="white">
                                <use xlink:href="#path-1"></use>
                            </mask>
                            <g id="Clip-8"></g>
                            <path d="M74.0891881,24.8563834 C73.6834973,24.8563834 73.2793403,24.6378849 73.059623,24.2359555 L61.9268997,3.91636431 L50.8336719,24.2359555 C50.4218458,24.9997369 49.172947,24.9997369 48.7691734,24.2359555 L37.6521716,3.91636431 L26.5347864,24.2359555 C26.3288733,24.6220852 25.9174308,24.8563834 25.4937178,24.8563834 C25.0562006,24.8563834 24.6623967,24.6220852 24.446514,24.2359555 L13.3394819,3.91636431 L2.22248008,24.2359555 C1.91380229,24.8128378 1.19329848,25.0274828 0.617355578,24.7091763 C0.0352774616,24.3908698 -0.171018999,23.6667804 0.153763719,23.089898 L12.3003306,0.872799449 C12.5062436,0.486669797 12.9100172,0.251600848 13.3394819,0.251600848 C13.7708639,0.251600848 14.170803,0.486669797 14.376716,0.872799449 L25.4937178,21.1920053 L36.6026671,0.872799449 C37.0263801,0.112486273 38.2695272,0.112486273 38.6813532,0.872799449 L49.790686,21.1920053 L60.8854477,0.872799449 C61.2972737,0.112486273 62.5526912,0.112486273 62.9698856,0.872799449 L75.1406098,23.089898 C75.4489042,23.6667804 75.2353221,24.3908698 74.6612965,24.7091763 C74.4791574,24.8128378 74.2951011,24.8563834 74.0891881,24.8563834" id="Fill-7" fill="#000000" mask="url(#mask-2)"></path>
                        </g>
                        <path d="M2.58257861,23.7207692 L37.65221,72.8147266 L72.6796618,23.7207692 L61.2279075,2.77304289 L14.0343329,2.77304289 L2.58257861,23.7207692 Z M37.65221,76.0494295 C37.2618572,76.0494295 36.909466,75.8586768 36.6801625,75.5480775 L0.223206635,24.5045892 C-0.0421412286,24.1269375 -0.0678324235,23.6375316 0.153802064,23.2313633 L12.3003689,1.00655753 C12.5062819,0.620427883 12.9100555,0.385358934 13.3395202,0.385358934 L61.9269381,0.385358934 C62.3606208,0.385358934 62.7582591,0.620427883 62.9699239,1.00655753 L75.1406482,23.2313633 C75.3561474,23.6375316 75.3247045,24.1269375 75.0589732,24.5045892 L38.6100697,75.5480775 C38.386518,75.8586768 38.0341268,76.0494295 37.65221,76.0494295 L37.65221,76.0494295 Z" id="Fill-10" fill="#000000"></path>
                    </g>
                </g>
            </g>
        </g>
    </g>
</svg>