<svg xmlns="http://www.w3.org/2000/svg" viewBox="0 0 104.09 127"><defs><style>.cls-1{fill:#fff;}.cls-2{fill:#d8c4a4;}.cls-3{fill:#f2dbbb;}</style></defs><title>ring</title><g id="Layer_2" data-name="Layer 2"><g id="Layer_1-2" data-name="Layer 1"><circle class="cls-1" cx="52.04" cy="74.96" r="52.04"/><path class="cls-2" d="M52,32.91A42,42,0,1,1,10,75a42.09,42.09,0,0,1,42-42m0-10a52,52,0,1,0,52,52,52,52,0,0,0-52-52Z"/><circle class="cls-1" cx="51.82" cy="74.96" r="36.99"/><path class="cls-3" d="M51.82,113.94a39,39,0,1,1,39-39A39,39,0,0,1,51.82,113.94Zm0-74a35,35,0,1,0,35,35A35,35,0,0,0,51.82,40Z"/><path class="cls-2" d="M47.48,24.4a6.59,6.59,0,0,0,9.14,0L67,14.4l3.19-3.07A6.59,6.59,0,0,0,65.62,0H38.47A6.59,6.59,0,0,0,33.9,11.33l3.19,3.07Z"/></g></g></svg>