<svg xmlns="http://www.w3.org/2000/svg" viewBox="0 0 83.84 103.55"><defs><style>.cls-1{fill:#d8c4a4;}.cls-2{fill:#f2dbbb;}</style></defs><title>zahngold</title><g id="Layer_2" data-name="Layer 2"><g id="Layer_1-2" data-name="Layer 1"><g id="Layer_3" data-name="Layer 3"><path class="cls-1" d="M83.84,39.06A18.84,18.84,0,0,0,65,20.22a18.51,18.51,0,0,0-10.93,3.55l0,0c-7.29,4.57-15.25-1-15.25-1l0,0A20.83,20.83,0,0,0,2.6,37C2.33,46.55,13.08,76.63,17.5,88.52l2.18,6.62a10.49,10.49,0,0,0,.37,1.14l.2.58,0,0a.4.4,0,0,0,0,.06,31.18,31.18,0,0,0,2.5,4v0a7.06,7.06,0,0,0,11.74-1l.06-.1a7,7,0,0,0,.75-2.1v0c1.3-6.12,6.47-27.89,6.47-27.89s0-.11,0-.17a3.48,3.48,0,0,1,.09-.46c0-.33.07-.52.07-.52l0,0a3.35,3.35,0,0,1,3.19-2.43,3.3,3.3,0,0,1,1.93.68l.17.12a3.32,3.32,0,0,1,1.28,2.59s6,21.86,6.69,27.35c0,.09,0,.15,0,.23A7.17,7.17,0,0,0,56,99.5,6.13,6.13,0,0,0,59.58,103h.15a7.07,7.07,0,0,0,8.1-2h0l.06-.07,0-.06a15.36,15.36,0,0,0,2.11-3.39h0l.07-.17s0,0,0,0a0,0,0,0,0,0,0l.26-.64a1.28,1.28,0,0,0,.13-.23h0l.06-.17a1,1,0,0,0,0-.11l1.2-3.32h0C78.25,78.27,82,53.24,83.32,43.32A18.83,18.83,0,0,0,83.84,39.06Z"/></g><circle class="cls-2" cx="5.5" cy="12.05" r="2.53" transform="translate(-7.46 14.74) rotate(-77.22)"/><circle class="cls-2" cx="1.27" cy="7.19" r="1.27" transform="translate(-6.03 6.84) rotate(-77.22)"/><rect class="cls-2" x="4.1" y="6.14" width="1.41" height="1.41" transform="translate(-2.93 10.01) rotate(-77.22)"/><circle class="cls-2" cx="8.27" cy="4.19" r="1.27" transform="translate(2.35 11.33) rotate(-77.22)"/><rect class="cls-2" x="9.1" y="13.14" width="1.41" height="1.41" transform="translate(-5.86 20.34) rotate(-77.22)"/><rect class="cls-2" x="7.1" y="0.14" width="1.41" height="1.41" transform="translate(5.26 8.27) rotate(-77.22)"/></g></g></svg>